# xmcd
#
# Track frame offsets:
#  150
#  19713
#  33278
#  53815
#  65963
#  89485
#  109420
#  122168
#  140095
#
# Disc length: 2367 seconds
#
# Revision: 4
# Processed by: cddbd v1.5.2PL0 Copyright (c) Steve Scherf et al.
# Submitted via: Collectorz.com_Music_Collector 6.9
#
DISCID=85093d09
DTITLE=Breakout - Karate
DYEAR=1972
DGENRE=Blues
TTITLE0=Daje Ci prog
TTITLE1=Takie moje miasto jest
TTITLE2=Noca, puka ktos
TTITLE3=Powiedzmy to
TTITLE4=Rzeka dziecinstwa
TTITLE5=Jest gdzies taki dom
TTITLE6=Sliska dzisiaj droga
TTITLE7=Zaprowadzic Ciebie musze tam
TTITLE8=Karate
EXTD=
EXTT0=
EXTT1=
EXTT2=
EXTT3=
EXTT4=
EXTT5=
EXTT6=
EXTT7=
EXTT8=
PLAYORDER=
